PathFileType	4	(X/Y/Z)	./resultDataOpenSim/trcMotMarkerGrf/sub09/qtm-05-06.trc
DataRate	CameraRate	NumFrames	NumMarkers	Units	OrigDataRate	OrigDataStartFrame	OrigNumFrames
250.000000	250.000000	7	24	m	250.000000	128	509
Frame#	Time	L.Toe.Tip			R.Toe.Tip			L.Ankle.Lat			R.Ankle.Lat			L.Ankle.Med			R.Ankle.Med			L.Heel			R.Heel			L.Knee.Lat			R.Knee.Lat			L.Knee.Med			R.Knee.Med			L.Thigh.Upper			R.Thigh.Upper			L.ASIS			R.ASIS			V.Sacral			L.Acromium			R.Acromium			C7			L.Elbow			R.Elbow			L.Wrist.Lat			R.Wrist.Lat
		X1	Y1	Z1	X2	Y2	Z2	X3	Y3	Z3	X4	Y4	Z4	X5	Y5	Z5	X6	Y6	Z6	X7	Y7	Z7	X8	Y8	Z8	X9	Y9	Z9	X10	Y10	Z10	X11	Y11	Z11	X12	Y12	Z12	X13	Y13	Z13	X14	Y14	Z14	X15	Y15	Z15	X16	Y16	Z16	X17	Y17	Z17	X18	Y18	Z18	X19	Y19	Z19	X20	Y20	Z20	X21	Y21	Z21	X22	Y22	Z22	X23	Y23	Z23	X24	Y24	Z24

128	0.508	-0.19013689	0.09530258	0.0017124948	-0.63113101	0.038952391	0.096409108	-0.33980586	0.099840219	-0.039940883	-0.77757866	0.05905939	0.11773129	-0.32261687	0.1199377	0.055423892	-0.75257312	0.092955677	0.027439044	-0.40096341	0.046902846	0.0069602934	-0.84469366	0.038721319	0.06257912	-0.3562149	0.51872976	-0.075716759	-0.58209232	0.47063282	0.1818491	-0.36434842	0.51354367	0.048450247	-0.59957715	0.4635971	0.054769209	-0.56655317	0.88175831	-0.12798733	-0.6153426	0.87907363	0.24437082	-0.50465331	0.96628017	-0.057878466	-0.51546602	0.9649495	0.17956281	-0.67825955	1.0203339	0.047633438	-0.52259594	1.4117982	-0.11679246	-0.53452147	1.4309553	0.2116219	-0.5938288	1.470991	0.048093177	-0.67894746	1.0775382	-0.15282672	-0.63530244	1.0717168	0.31286578	-0.57649326	0.84143639	-0.21220289	-0.39173785	0.93278653	0.27672522
129	0.512	-0.17484614	0.096434468	0.0037080533	-0.63107159	0.0387934	0.096344737	-0.32439924	0.097715834	-0.039082136	-0.77729602	0.059368308	0.11756632	-0.30812025	0.11855079	0.056250655	-0.75215542	0.09293872	0.027169788	-0.38455924	0.04353021	0.0075228762	-0.84452922	0.039085392	0.062274092	-0.35049407	0.51613821	-0.075740001	-0.57803305	0.46886881	0.18180519	-0.35927592	0.51073112	0.048513525	-0.59521479	0.46216316	0.05491371	-0.56008124	0.8798917	-0.12769341	-0.61032126	0.87750065	0.24453591	-0.49841303	0.96457787	-0.057446562	-0.51014765	0.96346894	0.17998477	-0.67221362	1.0184672	0.047326047	-0.51687185	1.4100935	-0.11673559	-0.52896421	1.4294905	0.2116358	-0.58829747	1.4693681	0.048157284	-0.67412786	1.0764048	-0.15310532	-0.62912839	1.0700367	0.3131006	-0.57275585	0.84007768	-0.21300148	-0.38506458	0.93222616	0.27631891
130	0.516	-0.15990522	0.097567651	0.005579331	-0.63100989	0.03864138	0.096298495	-0.30926094	0.09572657	-0.038175825	-0.77711953	0.059614233	0.11734998	-0.29388137	0.11722525	0.057026305	-0.75176415	0.092910406	0.026834823	-0.36844029	0.040318319	0.008186118	-0.84437558	0.039458795	0.061932167	-0.34483918	0.51342472	-0.0757472	-0.57399437	0.46702682	0.18176431	-0.35415795	0.50775123	0.048626649	-0.59081476	0.46067139	0.055066773	-0.55364142	0.8779027	-0.12741105	-0.60525894	0.87586293	0.24471761	-0.49215039	0.96277764	-0.05702929	-0.50479466	0.96191622	0.18041147	-0.66628438	1.0164951	0.047073727	-0.51114901	1.408289	-0.1167017	-0.52339763	1.4279184	0.21163892	-0.58267782	1.467698	0.048119506	-0.66932815	1.0751694	-0.1533986	-0.6229548	1.0682651	0.31333045	-0.56897447	0.83862772	-0.21379946	-0.37840552	0.93153741	0.27589547
131	0.52	-0.14533413	0.09867791	0.0072945131	-0.63093722	0.038531024	0.096285119	-0.29447736	0.093839309	-0.037267663	-0.77696971	0.059847193	0.11714483	-0.2799135	0.11598065	0.057794787	-0.75142099	0.092853475	0.02644105	-0.3526565	0.037287137	0.0089081227	-0.84422634	0.039840337	0.061549305	-0.33922796	0.51060243	-0.075731562	-0.56999496	0.46511239	0.1817245	-0.34899576	0.50461607	0.048787219	-0.58645731	0.45908443	0.055157717	-0.54723101	0.87579405	-0.12712735	-0.60013292	0.87415464	0.24490527	-0.48586442	0.96088816	-0.056627406	-0.49940188	0.96029493	0.18082959	-0.6605119	1.0144063	0.046903906	-0.50542156	1.40639	-0.11669269	-0.51782881	1.4262417	0.21162854	-0.57696117	1.4659603	0.047965318	-0.66462441	1.0738427	-0.15368173	-0.61678786	1.0664045	0.31355569	-0.56513975	0.837088	-0.21459892	-0.37181562	0.93074264	0.27550472
132	0.524	-0.13115264	0.099746497	0.0088365442	-0.63086462	0.038457786	0.096297547	-0.28010589	0.092027691	-0.036395116	-0.77681308	0.060078364	0.11697766	-0.26622962	0.11481903	0.058587777	-0.75112277	0.092772549	0.026030475	-0.33723894	0.034437391	0.0096687124	-0.84408403	0.040217694	0.061131425	-0.33360447	0.50769165	-0.07568712	-0.56603968	0.46314695	0.18169266	-0.343775	0.50136137	0.048987912	-0.58219033	0.45735632	0.05515093	-0.54082478	0.87357505	-0.12684287	-0.59492445	0.87236998	0.24508725	-0.47956482	0.95891817	-0.056236109	-0.49396609	0.9586056	0.18123211	-0.65481448	1.0122038	0.046770928	-0.49968629	1.4044045	-0.11669395	-0.51226487	1.4244712	0.21160688	-0.57122514	1.4641308	0.047781481	-0.65998634	1.0724259	-0.15396439	-0.61063593	1.0644619	0.31377851	-0.56124273	0.83546311	-0.21539509	-0.36531881	0.9298596	0.27516174
133	0.528	-0.11737418	0.10076293	0.010203264	-0.63080601	0.038402468	0.096323874	-0.26615386	0.090286502	-0.035570146	-0.77667002	0.060290703	0.11682463	-0.25286081	0.11372404	0.059399986	-0.75083114	0.092695178	0.025658445	-0.32219402	0.031741268	0.010449106	-0.84395882	0.040576559	0.06069258	-0.32792563	0.50470907	-0.075628622	-0.56212696	0.46115446	0.18167303	-0.33849228	0.4980273	0.049217966	-0.57803074	0.45547312	0.055044965	-0.53438777	0.87125688	-0.1265678	-0.58963239	0.87051268	0.24526109	-0.4732627	0.95686862	-0.055858823	-0.48849462	0.95684848	0.18162474	-0.64909165	1.0098986	0.046621179	-0.49394323	1.4023367	-0.11669424	-0.50670506	1.4226185	0.21158064	-0.56554138	1.4621994	0.047645747	-0.65533972	1.0709158	-0.15426446	-0.60449662	1.0624418	0.31399739	-0.55728457	0.83375318	-0.21618481	-0.3588667	0.92887834	0.27481985
134	0.532	-0.1040074	0.10172105	0.01140182	-0.63076672	0.038351639	0.096355675	-0.25260729	0.088627764	-0.034800934	-0.77657491	0.060466532	0.11663746	-0.23984713	0.1126649	0.060180947	-0.75050755	0.092643954	0.02534889	-0.30752125	0.02916322	0.011202035	-0.84385411	0.040922205	0.060249278	-0.32218335	0.50166301	-0.075576527	-0.55825489	0.45914387	0.18165942	-0.33315898	0.49464185	0.049464972	-0.5739465	0.45349098	0.054880293	-0.52790206	0.86884747	-0.1263005	-0.58427564	0.86859915	0.2454356	-0.46695692	0.95473802	-0.055510867	-0.48299485	0.955026	0.1820135	-0.64330201	1.0074982	0.046435374	-0.48819043	1.400186	-0.11669892	-0.50114523	1.4206902	0.21155487	-0.55990906	1.4601723	0.047555673	-0.65063902	1.069311	-0.1545891	-0.5983408	1.0603383	0.31419742	-0.55327368	0.831956	-0.21697167	-0.35241276	0.92777932	0.27443879
